<svg width="32" height="32" viewBox="0 0 32 32" fill="none" xmlns="http://www.w3.org/2000/svg">
<path d="M10.4333 17.3333L16.9667 23.8667C17.2333 24.1333 17.3613 24.4444 17.3507 24.8C17.34 25.1556 17.2009 25.4667 16.9333 25.7333C16.6667 25.9778 16.3555 26.1058 16 26.1173C15.6444 26.1289 15.3333 26.0009 15.0667 25.7333L6.26666 16.9333C6.13333 16.8 6.03866 16.6556 5.98266 16.5C5.92666 16.3444 5.89955 16.1778 5.90133 16C5.9031 15.8222 5.9311 15.6556 5.98533 15.5C6.03955 15.3444 6.13377 15.2 6.26799 15.0667L15.068 6.26667C15.3124 6.02222 15.6182 5.9 15.9853 5.9C16.3524 5.9 16.6689 6.02222 16.9347 6.26667C17.2013 6.53333 17.3347 6.85022 17.3347 7.21733C17.3347 7.58445 17.2013 7.90089 16.9347 8.16667L10.4333 14.6667H25.3333C25.7111 14.6667 26.028 14.7947 26.284 15.0507C26.54 15.3067 26.6675 15.6231 26.6667 16C26.6658 16.3769 26.5378 16.6938 26.2827 16.9507C26.0275 17.2076 25.7111 17.3351 25.3333 17.3333H10.4333Z" fill="white"/>
</svg>
